<svg width="190" height="190" viewBox="0 0 190 190" fill="none" xmlns="http://www.w3.org/2000/svg">
<path d="M158.333 15.8335H31.6668C23.7502 15.8335 15.8335 22.9585 15.8335 31.6668V55.496C15.8335 61.196 19.2377 66.1043 23.7502 68.8752V158.333C23.7502 167.042 32.4585 174.167 39.5835 174.167H150.417C157.542 174.167 166.25 167.042 166.25 158.333V68.8752C170.763 66.1043 174.167 61.196 174.167 55.496V31.6668C174.167 22.9585 166.25 15.8335 158.333 15.8335ZM150.417 158.333H39.5835V71.2502H150.417V158.333ZM158.333 55.4168H31.6668V31.6668H158.333V55.4168Z" fill="white"/>
<path d="M118.75 95.0002H71.25V110.834H118.75V95.0002Z" fill="white"/>
</svg>
