<svg width="190" height="190" viewBox="0 0 190 190" fill="none" xmlns="http://www.w3.org/2000/svg">
<path d="M87.0835 77.8208V110.833H102.917V77.8208L115.504 90.3292L126.667 79.1667L95.0002 47.5L63.3335 79.1667L74.496 90.3292L87.0835 77.8208Z" fill="white"/>
<path d="M150.417 23.75H39.5833C30.875 23.75 23.75 30.875 23.75 39.5833V150.417C23.75 159.125 30.875 166.25 39.5833 166.25H150.417C159.125 166.25 166.25 159.125 166.25 150.417V39.5833C166.25 30.875 159.125 23.75 150.417 23.75ZM150.417 150.417H39.5833V126.667H63.4917C70.6958 136.246 82.0958 142.5 95 142.5C107.904 142.5 119.225 136.246 126.508 126.667H150.417V150.417ZM150.417 110.833H117.325C114.079 120.017 105.371 126.667 95 126.667C84.6292 126.667 76 120.017 72.675 110.833H39.5833V39.5833H150.417V110.833Z" fill="white"/>
</svg>
